<?xml version="1.0" standalone="no"?><svg xmlns="http://www.w3.org/2000/svg" viewBox="0 0 750 220"><path fill="#0099FF" fill-opacity="1" d="M0,128L15,138.7C30,149,60,171,90,181.3C120,192,150,192,180,165.3C210,139,240,85,270,85.3C300,85,330,139,360,170.7C390,203,420,213,450,197.3C480,181,510,139,540,138.7C570,139,600,181,630,181.3C660,181,690,139,720,154.7C750,171,780,245,810,256C840,267,870,213,900,208C930,203,960,245,990,218.7C1020,192,1050,96,1080,69.3C1110,43,1140,85,1170,96C1200,107,1230,85,1260,90.7C1290,96,1320,128,1350,122.7C1380,117,1410,75,1425,53.3L1440,32L1440,320L1425,320C1410,320,1380,320,1350,320C1320,320,1290,320,1260,320C1230,320,1200,320,1170,320C1140,320,1110,320,1080,320C1050,320,1020,320,990,320C960,320,930,320,900,320C870,320,840,320,810,320C780,320,750,320,720,320C690,320,660,320,630,320C600,320,570,320,540,320C510,320,480,320,450,320C420,320,390,320,360,320C330,320,300,320,270,320C240,320,210,320,180,320C150,320,120,320,90,320C60,320,30,320,15,320L0,320Z"></path></svg>